<?xml version="1.0" standalone="no"?>
<!DOCTYPE svg PUBLIC "-//W3C//DTD SVG 20010904//EN"
 "http://www.w3.org/TR/2001/REC-SVG-20010904/DTD/svg10.dtd">
<svg version="1.0" xmlns="http://www.w3.org/2000/svg"
 width="1000.000000pt" height="1000.000000pt" viewBox="0 0 1000.000000 1000.000000"
 preserveAspectRatio="xMidYMid meet">
<metadata>
Created by potrace 1.11, written by Peter Selinger 2001-2013
</metadata>
<g transform="translate(0.000000,1000.000000) scale(0.100000,-0.100000)"
fill="#000000" stroke="none">
<path d="M6954 8441 c-3 -3 -12 -6 -20 -7 -9 -2 -38 -8 -64 -14 -26 -6 -54
-12 -61 -13 -14 -2 -54 -17 -114 -42 -16 -6 -46 -18 -65 -25 -19 -8 -46 -21
-60 -30 -14 -9 -38 -22 -54 -28 -37 -16 -171 -106 -214 -143 -18 -16 -38 -29
-45 -29 -7 0 -5 5 5 10 34 20 131 230 114 248 -4 4 -125 -78 -152 -103 -6 -5
-28 -23 -49 -40 -97 -76 -256 -233 -350 -346 -37 -44 -140 -177 -155 -199 -8
-12 -29 -41 -45 -64 -73 -99 -225 -347 -225 -366 0 -4 -3 -10 -7 -12 -5 -1
-18 -21 -29 -43 -79 -148 -122 -235 -116 -235 4 0 2 -4 -4 -8 -9 -6 -104 -194
-104 -206 0 -2 -16 -39 -36 -83 -65 -142 -99 -222 -164 -388 -26 -66 -50 -129
-55 -140 -5 -11 -9 -22 -10 -25 -1 -3 -7 -18 -14 -35 -6 -16 -19 -49 -28 -72
-9 -26 -20 -40 -26 -36 -13 8 -52 44 -166 153 -43 41 -95 88 -116 104 -20 16
-49 41 -65 55 -55 51 -80 71 -90 71 -6 0 -10 4 -10 9 0 7 -113 92 -168 126 -9
6 -35 22 -57 36 -78 51 -618 326 -830 424 -44 20 -98 45 -120 55 -144 67 -213
98 -310 140 -60 26 -132 57 -160 70 -27 12 -59 26 -70 30 -11 4 -36 15 -55 23
-78 33 -281 116 -370 152 -52 21 -115 46 -139 57 -25 11 -52 21 -60 23 -14 4
-105 39 -166 65 -11 4 -47 18 -80 30 -33 12 -69 26 -80 30 -99 40 -182 70
-194 70 -26 0 -4 -252 33 -365 23 -73 61 -162 88 -208 15 -26 28 -50 28 -53 0
-7 74 -115 105 -154 38 -47 220 -227 265 -261 25 -18 47 -36 50 -39 12 -13
102 -70 109 -70 5 0 11 -4 13 -8 2 -4 33 -25 70 -47 68 -39 81 -59 30 -47 -15
4 -38 7 -52 6 -63 -5 -157 -14 -175 -18 -11 -2 -42 -7 -68 -10 -27 -4 -59 -9
-70 -12 -12 -2 -37 -7 -56 -10 -19 -3 -44 -10 -57 -14 -12 -5 -24 -7 -27 -4
-2 2 -16 0 -30 -5 -24 -9 -25 -12 -15 -48 6 -21 12 -45 13 -53 5 -38 18 -81
26 -86 5 -3 9 -13 9 -23 0 -25 73 -172 121 -243 47 -68 197 -228 215 -228 7 0
14 -4 16 -9 6 -18 159 -111 261 -161 94 -44 286 -115 344 -126 12 -2 33 -8 47
-14 13 -5 27 -6 30 -3 3 4 6 1 6 -5 0 -10 -43 -18 -72 -13 -7 1 -126 -20 -191
-34 -99 -20 -251 -94 -314 -152 -7 -6 -16 -13 -20 -15 -5 -2 -21 -17 -37 -35
l-28 -32 32 -56 c74 -130 201 -265 333 -353 59 -40 197 -114 217 -117 3 0 19
-5 35 -11 144 -53 249 -68 460 -68 83 0 141 -2 130 -4 -11 -2 -26 -9 -33 -15
-7 -5 -35 -22 -61 -36 -131 -70 -230 -172 -267 -273 -9 -24 -16 -73 -16 -111
-1 -102 39 -176 152 -279 39 -36 147 -89 225 -111 52 -15 103 -20 197 -21 71
-1 128 -3 128 -6 0 -3 -34 -37 -76 -75 -42 -39 -86 -79 -98 -90 -44 -43 -155
-125 -257 -192 -35 -24 -68 -46 -74 -51 -11 -9 -123 -71 -199 -111 -28 -15
-91 -44 -141 -65 -49 -20 -97 -41 -105 -45 -14 -8 -154 -51 -270 -85 -63 -18
-134 -34 -188 -42 -46 -7 -81 -13 -109 -18 -94 -19 -560 -27 -668 -12 -74 10
-100 15 -105 16 -3 2 -8 2 -12 1 -6 -1 -66 10 -128 24 -14 3 -36 7 -50 10 -86
16 -315 86 -400 122 -19 8 -44 19 -55 23 -72 28 -255 122 -334 171 -51 33 -95
59 -97 59 -3 0 -35 23 -72 51 -37 28 -83 63 -102 78 -19 14 -62 51 -95 81 -33
30 -55 48 -49 40 24 -35 109 -146 119 -156 5 -6 21 -25 35 -43 102 -132 412
-454 539 -561 29 -25 61 -52 70 -60 53 -51 246 -201 346 -269 106 -73 172
-117 195 -130 14 -8 60 -36 102 -62 43 -26 131 -76 195 -109 65 -34 124 -66
131 -72 6 -6 12 -7 12 -3 0 4 6 3 12 -3 7 -5 60 -31 118 -56 106 -47 117 -52
180 -79 62 -26 282 -105 375 -133 93 -29 95 -30 133 -38 12 -3 27 -8 32 -11 5
-3 18 -8 27 -10 10 -2 77 -17 148 -33 124 -29 158 -36 215 -47 14 -3 36 -7 50
-10 14 -2 41 -7 60 -10 19 -3 46 -7 60 -10 14 -3 45 -7 69 -10 23 -3 55 -7 70
-9 14 -3 55 -8 91 -11 36 -4 72 -8 81 -10 57 -11 266 -19 514 -19 316 -1 465
7 705 38 30 4 73 9 95 12 56 7 97 14 115 19 8 2 33 7 55 10 45 5 59 8 165 31
14 3 34 6 45 8 11 2 29 6 40 9 11 3 31 8 45 11 14 2 54 12 90 21 36 9 75 19
87 21 12 2 33 8 45 13 13 5 26 9 31 10 11 2 19 4 77 20 25 7 101 31 170 54 69
22 127 42 130 42 3 1 12 5 20 8 57 24 207 79 218 80 6 0 12 4 12 8 0 4 11 10
25 13 26 7 97 37 191 82 28 13 56 24 62 24 6 0 12 3 14 8 2 4 48 29 103 56 99
48 395 213 405 226 3 4 21 15 40 26 19 10 37 21 40 25 3 3 23 16 45 29 22 13
42 27 45 30 3 3 34 25 70 49 36 24 67 47 70 50 3 4 30 25 60 46 59 43 58 42
165 131 39 33 78 66 88 74 10 8 35 31 56 50 20 19 50 46 66 60 17 14 38 36 48
50 9 13 17 22 17 18 0 -6 119 114 172 173 146 163 316 382 393 506 11 18 44
72 74 120 116 186 261 495 327 693 10 30 19 57 19 60 1 3 12 39 25 80 13 41
23 79 22 84 -2 4 3 14 9 22 6 8 9 14 6 14 -4 0 -3 10 2 23 7 20 15 22 82 23
64 2 115 6 239 19 23 3 79 12 119 20 137 26 371 110 393 140 4 6 8 7 8 2 0
-12 159 90 220 141 77 64 130 116 130 125 0 5 -4 6 -8 3 -15 -9 -192 -20 -307
-19 -112 1 -238 8 -310 18 -22 3 -53 8 -70 10 -80 11 -119 19 -225 46 -63 16
-133 35 -154 43 -45 16 -38 20 59 32 33 4 62 8 65 9 7 1 69 14 99 20 83 16
296 90 322 112 8 7 20 13 25 13 5 0 52 27 104 61 123 80 255 211 309 309 22
40 51 99 51 104 0 2 -20 -6 -45 -20 -25 -13 -49 -24 -53 -25 -4 -1 -18 -5 -31
-10 -13 -5 -31 -11 -40 -12 -9 -1 -20 -5 -26 -8 -5 -4 -41 -14 -80 -24 -38 -9
-77 -19 -85 -22 -8 -3 -24 -7 -35 -8 -27 -4 -85 -15 -112 -20 -124 -27 -541
-26 -585 1 -5 3 -20 8 -35 10 -36 7 -53 22 -53 47 0 11 -4 34 -9 51 -10 30
-39 136 -46 166 -13 57 -18 76 -24 85 -3 6 -6 12 -6 15 -6 50 -164 405 -188
421 -5 3 -8 8 -7 10 3 7 -35 69 -42 69 -5 0 -8 9 -8 20 0 11 -4 20 -8 20 -5 0
-13 10 -19 23 -12 24 -126 177 -188 252 -99 117 -261 267 -395 363 -47 34 -89
65 -95 70 -5 4 -17 11 -25 15 -8 4 -33 18 -55 31 -131 81 -334 166 -485 203
-125 30 -190 41 -296 49 -91 6 -76 6 -176 2 -43 -2 -74 -1 -70 3 13 10 218 83
232 81 3 0 12 4 21 9 9 4 29 11 45 13 16 3 70 17 119 31 50 14 95 27 100 28 6
1 16 6 23 10 6 5 12 6 12 2 0 -3 13 1 30 10 16 8 32 15 35 15 3 -1 31 11 63
26 139 68 187 144 138 219 -40 60 -191 58 -411 -6 -38 -11 -86 -26 -105 -34
-19 -7 -39 -14 -45 -15 -20 -5 -32 -9 -114 -39 -46 -17 -85 -30 -87 -28 -2 2
24 17 57 35 90 48 181 119 216 171 30 43 53 92 53 111 0 8 -48 9 -56 1z"/>
</g>
</svg>
